
<svg
   xmlns:dc="http://purl.org/dc/elements/1.1/"
   xmlns:cc="http://creativecommons.org/ns#"
   xmlns:rdf="http://www.w3.org/1999/02/22-rdf-syntax-ns#"
   xmlns:svg="http://www.w3.org/2000/svg"
   xmlns="http://www.w3.org/2000/svg"
   xmlns:sodipodi="http://sodipodi.sourceforge.net/DTD/sodipodi-0.dtd"
   xmlns:inkscape="http://www.inkscape.org/namespaces/inkscape"
   id="svg3497"
   version="1.1"
   inkscape:version="0.91 r13725"
   xml:space="preserve"
   width="1000"
   height="1000"
   viewBox="0 0 1000 1000"
   sodipodi:docname="right-arrow.svg"><metadata
     id="metadata3503"><rdf:RDF><cc:Work
         rdf:about=""><dc:format>image/svg+xml</dc:format><dc:type
           rdf:resource="http://purl.org/dc/dcmitype/StillImage" /><dc:title></dc:title></cc:Work></rdf:RDF></metadata><defs
     id="defs3501"><clipPath
       clipPathUnits="userSpaceOnUse"
       id="clipPath3513"><path
         d="M 0,800 800,800 800,0 0,0 0,800 Z"
         id="path3515"
         inkscape:connector-curvature="0" /></clipPath><clipPath
       clipPathUnits="userSpaceOnUse"
       id="clipPath3765"><path
         d="M 0,800 800,800 800,0 0,0 0,800 Z"
         id="path3767"
         inkscape:connector-curvature="0" /></clipPath></defs><sodipodi:namedview
     pagecolor="#ffffff"
     bordercolor="#666666"
     borderopacity="1"
     objecttolerance="10"
     gridtolerance="10"
     guidetolerance="10"
     inkscape:pageopacity="0"
     inkscape:pageshadow="2"
     inkscape:window-width="1384"
     inkscape:window-height="742"
     id="namedview3499"
     showgrid="false"
     inkscape:snap-bbox="true"
     inkscape:object-paths="true"
     inkscape:snap-bbox-midpoints="true"
     inkscape:zoom="0.41"
     inkscape:cx="289.31011"
     inkscape:cy="447.75082"
     inkscape:window-x="1734"
     inkscape:window-y="216"
     inkscape:window-maximized="0"
     inkscape:current-layer="g3505"
     showguides="false" />
     <g
       id="g3505"
       inkscape:groupmode="layer"
       inkscape:label="18957-NRW3B7"
       transform="matrix(1.25,0,0,-1.25,0,1000)">
       <g
         id="g3705"
         transform="matrix(4.4740371,0,0,11.548616,317.89107,586.55252)"
         style="fill:#ffcc00;fill-opacity:1"><path
           d="m 0,0 -10.279,0 8.706,-8.707 7.428,-7.427 -7.428,-7.428 -8.707,-8.707 10.28,0 16.134,16.135 L 0,0 Z"
           style="fill:#ffcc00;fill-opacity:1;fill-rule:evenodd;stroke:none"
           id="path3707"
           inkscape:connector-curvature="0" />
         </g>
           <path
             inkscape:connector-curvature="0"
             id="path3711"
             style="fill:#ffcc00;fill-opacity:1;fill-rule:evenodd;stroke:none"
             d="m 800.12248,400.22138 -133.89003,199.53699 -133.89451,199.53698 0,-212.73705 -196.32522,0 38.95544,-100.5538 33.23314,-85.78312 -33.23314,-85.77157 -38.95544,-100.5538 196.32522,0 0,-212.7486045 133.89451,199.5369845 133.89003,199.53699 z" /><g
             id="g3713"
             transform="matrix(4.4740371,0,0,11.548616,249.91613,584.39062)"
             style="fill:#ffcc00;fill-opacity:1">
           <path
             d="m 0,0 -10.28,0 8.708,-8.707 7.427,-7.427 -7.427,-7.427 -8.708,-8.708 10.28,0 16.134,16.135 L 0,0 Z"
             style="fill:#ffcc00;fill-opacity:1;fill-rule:evenodd;stroke:none"
             id="path3715"
             inkscape:connector-curvature="0" />
         </g>
         <g
           id="g3717"
           transform="matrix(4.4740371,0,0,11.548616,181.94209,582.22756)"
           style="fill:#ffcc00;fill-opacity:1"><path
             d="m 0,0 -10.279,0 8.706,-8.707 7.428,-7.427 -7.428,-7.428 -8.707,-8.707 10.28,0 16.134,16.135 L 0,0 Z"
             style="fill:#ffcc00;fill-opacity:1;fill-rule:evenodd;stroke:none"
             id="path3719"
             inkscape:connector-curvature="0" /></g>
         <g
           id="g3721"
           transform="matrix(4.4740371,0,0,11.548616,113.9667,580.0622)"
           style="fill:#ffcc00;fill-opacity:1"><path
             d="m 0,0 -10.28,0 8.707,-8.707 7.428,-7.427 -7.428,-7.427 -8.707,-8.708 10.28,0 16.134,16.135 L 0,0 Z"
             style="fill:#ffcc00;fill-opacity:1;fill-rule:evenodd;stroke:none"
             id="path3723"
             inkscape:connector-curvature="0" /></g>
           <g
           id="g3725"
           transform="matrix(4.4740371,0,0,11.548616,45.993101,577.89914)"
           style="fill:#ffcc00;fill-opacity:1"><path
             d="m 0,0 -10.279,0 8.706,-8.707 7.428,-7.427 -7.428,-7.428 -8.707,-8.707 10.28,0 16.134,16.135 L 0,0 Z"
             style="fill:#ffcc00;fill-opacity:1;fill-rule:evenodd;stroke:none"
             id="path3727"
             inkscape:connector-curvature="0" /></g>
           </g>
         </svg>
